<svg   xmlns="http://www.w3.org/2000/svg" width="396" height="138.59584927262586" viewBox="0 0 350 122.49633142782588" class="looka-1j8o68f"><defs id="SvgjsDefs1012"></defs><g id="SvgjsG1013" featurekey="symbolFeature-0" transform="matrix(0.2934561689763854,0,0,0.2934561689763854,123.84717578118682,-33.47776687245035)" fill="#000000"><g xmlns="http://www.w3.org/2000/svg"><path d="M175 135.96c7.2 0 13.23 4.79 15.69 11.39q.87 2.35.84 9.22-.05 9.14-.06 18.16 0 9.02.03 18.17.02 6.86-.86 9.21c-2.47 6.6-8.5 11.37-15.71 11.37-7.21-.01-13.23-4.79-15.7-11.4q-.87-2.35-.84-9.21.05-9.14.06-18.17.01-9.02-.03-18.16-.02-6.86.86-9.22c2.47-6.59 8.51-11.37 15.72-11.36M92.33 145.83c9.72.02 16.39 7.41 16.56 16.87q.15 8.78.15 12.07-.01 3.28-.21 12.07c-.22 9.45-6.92 16.81-16.64 16.79-9.72-.03-16.39-7.42-16.56-16.88q-.15-8.78-.14-12.07.01-3.28.2-12.07c.22-9.45 6.93-16.81 16.64-16.78" fill="#000000"></path></g><g xmlns="http://www.w3.org/2000/svg"><rect width="33.38" height="120.84" x="-16.69" y="-60.42" rx="16.22" transform="rotate(-.1 100064.989 -76333.826)" fill="#606060"></rect><rect width="33.02" height="57.08" x="-16.51" y="-28.54" rx="15.59" transform="rotate(-.1 100276.123 -147569.52)" fill="#606060"></rect></g><rect xmlns="http://www.w3.org/2000/svg" width="33.3" height="120.86" x="-16.65" y="-60.43" fill="#000000" rx="16.17" transform="rotate(.1 -99918.726 124098.244)"></rect></g><g id="SvgjsG1014" featurekey="nameFeature-0" transform="matrix(2.401833626403751,0,0,2.401833626403751,-2.3759381933546435,26.29400683212013)" fill="#eeeeee"><path d="M5.7219 31.604300000000002 l3.7701 0 l-1.8717 -15.348 z M0.9893 40.053476 l3.3422 -27.193 l-0.66845 -0.80214 l7.139 0 l3.4492 27.995 l-3.7166 0 l-0.50802 -4.2246 l-5.9091 -0.026738 l0.9893 0.7754 l-0.42781 3.4759 l-3.6898 0 z M16.497343850267377 16.203 l-3.984 0 l0 -4.2513 l11.658 0 l0 4.2513 l-5.0802 0 l1.0963 0.80214 l0 22.968 l-3.6898 0 l0 -23.77 z M24.999995187165773 12.032 l4.3583 0 l0 23.77 l6.1497 0 l0 4.2246 l-9.8396 0 l0 -0.026738 l0 -4.1979 l0 -22.968 z M40.507996256684486 31.604300000000002 l3.7701 0 l-1.8717 -15.348 z M35.77539625668449 40.053476 l3.3422 -27.193 l-0.66845 -0.80214 l7.139 0 l3.4492 27.995 l-3.7166 0 l-0.50802 -4.2246 l-5.9091 -0.026738 l0.9893 0.7754 l-0.42781 3.4759 l-3.6898 0 z M49.67914598930481 12.004999999999999 l5.2406 0 l3.4225 15.267 l0 -15.241 l3.6631 0 l0 27.968 l-4.5722 0 l-3.3957 -15.187 l0 15.214 l-3.6898 0 l0 -27.193 z M66.92515133689838 16.203 l-3.984 0 l0 -4.2513 l11.658 0 l0 4.2513 l-5.0802 0 l1.0963 0.80214 l0 22.968 l-3.6898 0 l0 -23.77 z M82.13900106951871 12.032 l6.1765 0 l2.4866 9.4385 l2.5134 -9.4385 l5.508 0 l-0.026738 27.995 l-3.6631 0 l0 -20.535 l-4.3316 16.257 l0 0.026738 l0 -0.026738 l0 0.026738 l0 -0.026738 l-4.3048 -16.257 l0 20.535 l-3.6898 0 l0 -27.193 z M100.96252299465239 12.861 l-0.66845 -0.82888 l10.508 0 l0 4.2246 l-7.246 0 l1.0963 0.82888 l0 6.8182 l4.3316 0 l0 4.2513 l-5.4278 0 l1.0963 0.80214 l0 6.8449 l6.1497 0 l0 4.2246 l-9.8396 0 l0 -4.2246 l0 -7.6471 l0 -4.2513 l0 -11.043 z M114.91975561497325 28.182000000000002 l1.0963 0.80214 l0 6.8449 l4.3048 0 l0 -7.6471 l-5.4011 0 z M116.01605561497325 17.112 l0 6.8182 l4.3048 0 l0 -7.6471 l-5.4011 0 z M124.01085561497325 14.706 l0 8.6898 c0 1.4973 -1.2299 2.6471 -2.6471 2.6471 c1.4171 0 2.6471 1.2299 2.6471 2.6471 l0 8.7166 c0 1.4973 -1.2299 2.6471 -2.6471 2.6471 l-9.0374 0 l0 -27.193 l-0.66845 -0.80214 l9.7059 0 c1.4171 0 2.6471 1.2299 2.6471 2.6471 z M125.58819144385025 12.861 l-0.66845 -0.82888 l10.508 0 l0 4.2246 l-7.246 0 l1.0963 0.82888 l0 6.8182 l4.3316 0 l0 4.2513 l-5.4278 0 l1.0963 0.80214 l0 6.8449 l6.1497 0 l0 4.2246 l-9.8396 0 l0 -4.2246 l0 -7.6471 l0 -4.2513 l0 -11.043 z M136.2032037433155 12.032 l4.3583 0 l0 23.77 l6.1497 0 l0 4.2246 l-9.8396 0 l0 -0.026738 l0 -4.1979 l0 -22.968 z"></path></g></svg>